<svg xmlns="http://www.w3.org/2000/svg" shape-rendering="geometricPrecision" text-rendering="geometricPrecision" image-rendering="optimizeQuality" fill-rule="evenodd" clip-rule="evenodd" viewBox="0 0 492 512.324"><circle fill="#39BF46" cx="231.181" cy="231.181" r="231.181"/><path fill="#44944D" d="M437.687 127.171C471.6 167.894 492 220.259 492 277.396c0 129.746-105.183 234.928-234.928 234.928-103.431 0-191.249-66.843-222.619-159.684 40.74 65.851 113.605 109.722 196.728 109.722 127.682 0 231.181-103.499 231.181-231.181 0-37.412-8.899-72.749-24.675-104.01z"/><path fill="#fff" fill-rule="nonzero" d="M129.413 177.369h53.807l44.505-44.839c3.299-3.299 8.634-3.325 11.932-.026 1.677 1.624 2.502 3.789 2.502 5.98h.026v185.359c0 4.665-3.789 8.48-8.482 8.48a8.465 8.465 0 01-6.055-2.552l-43.989-35.741h-54.246c-7.422 0-14.175-3.04-19.047-7.913-4.897-4.87-7.937-11.623-7.937-19.045v-62.719c0-7.422 3.04-14.175 7.913-19.045 4.896-4.899 11.649-7.939 19.071-7.939zM316.629 167.761c-2.853-6.871.404-14.755 7.275-17.608 6.872-2.853 14.756.404 17.609 7.275 8.852 21.197 13.406 47.79 13.808 74.245.407 26.855-3.489 53.827-11.533 75.068-2.62 6.959-10.387 10.475-17.345 7.855-6.959-2.62-10.476-10.386-7.856-17.345 6.879-18.162 10.205-41.627 9.846-65.262-.35-23.102-4.245-46.127-11.804-64.228zM267.421 201.735c-1.775-7.22 2.638-14.515 9.859-16.291 7.221-1.776 14.515 2.638 16.291 9.859 2.721 10.902 4.298 26.817 4.027 41.535-.251 13.656-2.141 26.771-6.22 35.134-3.26 6.697-11.334 9.482-18.03 6.222-6.697-3.261-9.482-11.334-6.221-18.031 2.302-4.722 3.399-13.741 3.584-23.747.229-12.46-1.059-25.745-3.29-34.681z"/></svg>